<?xml version="1.0" standalone="no"?>
<!DOCTYPE svg PUBLIC "-//W3C//DTD SVG 20010904//EN"
 "http://www.w3.org/TR/2001/REC-SVG-20010904/DTD/svg10.dtd">
<svg version="1.0" xmlns="http://www.w3.org/2000/svg"
 width="107.000000pt" height="107.000000pt" viewBox="0 0 107.000000 107.000000"
 preserveAspectRatio="xMidYMid meet">
<metadata>
Created by potrace 1.14, written by Peter Selinger 2001-2017
</metadata>
<g transform="translate(0.000000,107.000000) scale(0.100000,-0.100000)"
fill="#000000" stroke="none">
<path d="M441 1018 c-67 -10 -182 -64 -237 -112 -51 -44 -109 -129 -138 -204
-25 -63 -32 -195 -15 -271 33 -145 147 -279 286 -336 136 -55 271 -50 403 13
67 32 69 34 137 101 34 35 68 83 91 130 37 75 37 77 37 201 0 125 0 125 -39
205 -99 202 -299 306 -525 273z"/>
</g>
</svg>
